<svg width="158" height="65" viewBox="0 0 158 65" fill="none" xmlns="http://www.w3.org/2000/svg">
<path d="M1.00608 17.8679L0.181563 8.31462C0.0829649 7.17221 0.961899 6.13422 2.10505 6.04305L29.6099 3.84943C29.7875 3.83526 29.9767 3.82726 30.1209 3.9248C30.2294 3.99823 30.3062 4.107 30.3512 4.25114C30.4232 4.46204 30.4716 4.78475 30.4965 5.21926L31.4197 15.4279C31.423 16.0104 31.2312 16.3223 30.844 16.3636L24.5867 17.3062C23.5338 17.4648 22.7479 18.4205 22.7972 19.4824L24.7362 61.299C24.7375 61.3231 24.7335 61.3843 24.7242 61.4824C24.7148 61.5805 24.7108 61.6417 24.7122 61.6658C24.7136 61.69 24.7089 61.739 24.6982 61.8131C24.6874 61.8871 24.6753 61.9369 24.6618 61.9627C24.6483 61.9884 24.6361 62.0382 24.6254 62.1123C24.6227 62.1234 24.6196 62.134 24.6161 62.144C24.5948 62.2044 24.541 62.236 24.4995 62.2854V62.2854C24.4908 62.2956 24.4746 62.3147 24.4646 62.3237C24.4494 62.3373 24.4323 62.3511 24.4134 62.3651C24.3863 62.3853 24.3601 62.4068 24.3326 62.4265C24.3266 62.4308 24.3202 62.4352 24.3135 62.4396C24.2677 62.4695 24.2212 62.4803 24.17 62.4978V62.4978C24.1187 62.5154 24.0604 62.5369 24.0071 62.5425L22.6584 62.6865C21.5323 62.8066 20.7369 62.8576 20.2723 62.8393C19.9762 62.8276 19.5427 62.7338 19.2491 62.7952V62.7952C19.0123 62.8448 18.8343 62.8759 18.7152 62.8886L16.9285 63.0793C16.586 63.1158 16.0954 63.1803 15.4565 63.2728C14.8325 63.3636 14.3419 63.4281 13.9846 63.4663L13.4532 63.523C12.9958 63.5718 12.549 63.4213 12.2263 63.1096V63.1096C11.9411 62.8343 11.7754 62.455 11.7627 62.0482L11.2143 44.4626C11.149 43.0609 11.0373 40.0613 10.8791 35.4636C10.7358 30.8644 10.5882 27.2371 10.4363 24.5817L10.3824 23.6403C10.3713 23.4472 10.3615 23.1446 10.3529 22.7327C10.3443 22.3207 10.3345 22.0182 10.3235 21.825C10.311 21.6078 10.2787 21.1741 10.2266 20.5239V20.5239C10.1672 19.7762 9.57919 19.1981 8.83458 19.1647L2.60628 18.8856C2.50695 18.8811 2.40703 18.8862 2.3073 18.8889C2.03251 18.8962 1.76492 18.8417 1.50455 18.7255C1.19572 18.5642 1.02956 18.2783 1.00608 17.8679Z" fill="#FF5500"/>
<path d="M52.6284 27.4968C52.9711 25.684 53.2853 23.6354 53.5709 21.3508C53.8756 19.0662 54.1231 17.03 54.3135 15.2421C54.5039 13.4542 54.7229 11.2689 54.9704 8.6864C55.237 6.07903 55.4559 4.01796 55.6273 2.5032H72.0786C72.1357 3.09917 72.1928 3.74481 72.25 4.44011C72.3261 5.11057 72.3928 5.75621 72.4499 6.37701C72.507 6.99782 72.5641 7.65587 72.6213 8.35117C72.6974 9.04647 72.7641 9.71694 72.8212 10.3626C72.8783 10.9834 72.9354 11.6414 72.9926 12.3367C73.0497 13.032 73.1068 13.6901 73.1639 14.3109C73.2401 14.9317 73.3067 15.5773 73.3638 16.2478C73.44 16.9183 73.5067 17.5515 73.5638 18.1474L74.7919 28.6887L77.1054 3.06192C77.1435 2.91293 77.2101 2.78877 77.3053 2.68944C77.4195 2.59011 77.5719 2.51561 77.7623 2.46595C77.9527 2.39145 78.1336 2.34179 78.3049 2.31696C78.4763 2.26729 78.7048 2.24246 78.9904 2.24246C79.2951 2.21763 80.5042 2.46595 80.6755 2.46595C80.8469 2.46595 81.0944 2.46595 81.4181 2.46595C81.7418 2.46595 81.9608 2.46595 82.075 2.46595C82.6843 2.46595 83.5602 2.49078 84.7027 2.54045C85.8451 2.59011 86.721 2.61494 87.3303 2.61494C87.4065 2.61494 87.6064 2.60253 87.9301 2.57769C88.2538 2.55286 88.5108 2.54045 88.7012 2.54045C89.4248 2.54045 89.8437 2.61494 89.9579 2.76394C90.0531 2.76394 90.215 2.75152 90.4435 2.72669C90.691 2.70186 89.9008 2.4287 90.0151 2.4287C90.1864 2.4287 90.3292 2.44112 90.4435 2.46595C90.5768 2.49078 90.71 2.55286 90.8433 2.65219C90.9766 2.72669 91.0909 2.82602 91.1861 2.95018C91.3003 3.07434 91.3955 3.24816 91.4717 3.47165C91.5669 3.69514 91.6335 3.96829 91.6716 4.29111L88.487 32.336L84.3314 60.1202L66.652 59.8595L63.4817 27.9065L59.6167 47.8685C59.5977 48.0175 59.5406 48.4273 59.4454 49.0977C59.3692 49.7682 57.4735 57.4508 57.4164 57.6991C57.3783 57.9474 57.3021 58.2827 57.1879 58.7048C57.0737 59.1269 56.9308 59.4249 56.7595 59.5988C56.5881 59.7726 56.3787 59.8595 56.1311 59.8595C55.4266 59.8595 54.3794 59.8222 52.9894 59.7477C51.5994 59.6733 49.2372 59.5988 48.5327 59.5988C45.9428 59.5988 48.1363 59.7477 45.0494 59.7477C43.0691 59.8222 41.622 59.8595 40.7081 59.8595H39.7941L35.92 6.11628L36.0914 3.47165C36.0914 3.42199 36.0914 3.32266 36.0914 3.17367C36.0914 3.02467 36.0914 2.93776 36.0914 2.91293C36.0914 2.86326 36.1009 2.78877 36.12 2.68944C36.139 2.56528 36.1676 2.47837 36.2057 2.4287C36.2437 2.37904 36.3009 2.31696 36.377 2.24246C36.4532 2.16796 36.5484 2.10588 36.6626 2.05622C37.1958 2.15555 37.5956 2.20521 37.8622 2.20521H39.7473C40.1281 2.20521 40.3185 2.15555 40.3185 2.05622H41.2896C41.3657 2.05622 41.499 2.0438 41.6894 2.01897C41.8989 1.99414 42.0893 1.98172 42.2606 1.98172H43.0604C43.2698 1.98172 43.5745 1.96931 43.9743 1.94447C44.3742 1.91964 44.6788 1.90723 44.8883 1.90723H46.7733V2.05622H48.6584C49.2677 2.05622 49.7246 2.18038 50.0293 2.4287C50.353 2.65219 50.5244 3.124 50.5434 3.84413L52.6284 27.4968Z" fill="#FF5500"/>
<path d="M98.4124 42.5806C97.3145 46.7265 91.7794 53.8089 89.149 56.8319H124.245C121.125 52.8787 114.974 44.4938 115.325 42.5806C116.885 42.2572 120.151 41.1999 120.736 39.5576C117.275 34.6494 110.587 24.6686 111.523 24.0107C112.449 24.3366 114.652 24.361 116.056 21.8515C113.375 18.0619 107.808 9.30155 106.99 4.57715C106.441 8.03201 100.357 17.5329 97.3831 21.8515C99.0299 24.2699 101.5 24.2986 102.529 24.0107C101.98 26.4291 95.6677 35.383 92.5799 39.5576C93.9523 41.285 97.04 42.2927 98.4124 42.5806Z" fill="#014921" stroke="#014921" stroke-width="6" stroke-linecap="round" stroke-linejoin="round"/>
<rect x="103.772" y="57.9761" width="7.01921" height="4.95848" fill="#3C2B2B"/>
<path d="M131.659 0L138.007 21.0587C139.454 16.0177 140.806 10.9768 142.063 5.93588C142.101 5.73722 142.215 5.36474 142.406 4.81843C142.596 4.27212 142.71 3.82514 142.748 3.47749C142.901 2.88152 143.929 2.58354 145.833 2.58354C145.966 2.58354 146.147 2.59595 146.376 2.62078C146.623 2.64562 146.823 2.65803 146.975 2.65803C150.079 2.60837 153.43 2.5587 157.029 2.50904C157.486 2.58354 157.81 3.19192 158 4.3342L145.033 34.9522L145.49 37.4479C145.49 38.8881 145.509 41.0858 145.547 44.0408C145.585 46.9958 145.833 57.0603 145.833 58.2026V59.32C145.757 59.6677 145.604 59.9532 145.376 60.1767C145.167 60.4002 144.862 60.5492 144.462 60.6237C144.081 60.6734 143.738 60.7106 143.434 60.7355C143.148 60.7355 142.729 60.723 142.177 60.6982C141.644 60.6734 141.282 60.661 141.092 60.661H130.181L129.267 59.0965L129.039 35.511L123.368 16.0957L120.151 8.65798C118.589 4.5855 115.179 2.21006 115.179 1.04295C115.179 0.34765 115.636 0 116.55 0H131.659Z" fill="#FF5500"/>
</svg>
