<svg width="31" height="29" viewBox="0 0 31 29" fill="none" xmlns="http://www.w3.org/2000/svg">
<path d="M10.5171 2.26404C10.0314 1.12022 8.69859 0.572943 7.6402 1.22407C5.35027 2.63284 3.4685 4.63944 2.20932 7.04602C0.600481 10.1209 0.107582 13.6585 0.814608 17.056C1.52163 20.4536 3.38484 23.5008 6.08676 25.6786C8.78867 27.8565 12.1621 29.03 15.6323 28.9994C19.1025 28.9688 22.4547 27.7359 25.1178 25.5108C27.7809 23.2856 29.59 20.206 30.237 16.7965C30.884 13.387 30.3288 9.85864 28.6659 6.81263C27.3645 4.42864 25.4476 2.45555 23.1332 1.0874C22.0635 0.455042 20.7405 1.02575 20.2751 2.17795C19.8097 3.33015 20.386 4.62333 21.4129 5.32312C22.7784 6.25371 23.9142 7.49983 24.7162 8.96884C25.8801 11.101 26.2688 13.5709 25.8159 15.9575C25.363 18.3442 24.0966 20.4999 22.2325 22.0575C20.3683 23.6151 18.0218 24.4782 15.5926 24.4996C13.1635 24.521 10.8021 23.6995 8.91073 22.1751C7.01939 20.6506 5.71514 18.5175 5.22023 16.1392C4.72531 13.7609 5.07034 11.2846 6.19652 9.13221C6.97243 7.64929 8.08604 6.38332 9.43498 5.42878C10.4493 4.71099 11.0027 3.40785 10.5171 2.26404Z" fill="url(#paint0_linear_218_327)"/>
<defs>
<linearGradient id="paint0_linear_218_327" x1="15.5" y1="7.5" x2="32" y2="9" gradientUnits="userSpaceOnUse">
<stop stop-color="#F5F5F5"/>
<stop offset="0.0001" stop-color="white"/>
<stop offset="0.9997" stop-color="#D9D9D9" stop-opacity="0.27"/>
<stop offset="0.9998" stop-color="white"/>
<stop offset="0.9999" stop-color="#FFC1AC"/>
</linearGradient>
</defs>
</svg>
